%TF.GenerationSoftware,KiCad,Pcbnew,7.0.6-7.0.6~ubuntu22.04.1*%
%TF.CreationDate,2023-08-18T10:05:56-04:00*%
%TF.ProjectId,laserSim,6c617365-7253-4696-9d2e-6b696361645f,rev?*%
%TF.SameCoordinates,Original*%
%TF.FileFunction,Copper,L2,Bot*%
%TF.FilePolarity,Positive*%
%FSLAX46Y46*%
G04 Gerber Fmt 4.6, Leading zero omitted, Abs format (unit mm)*
G04 Created by KiCad (PCBNEW 7.0.6-7.0.6~ubuntu22.04.1) date 2023-08-18 10:05:56*
%MOMM*%
%LPD*%
G01*
G04 APERTURE LIST*
%TA.AperFunction,ComponentPad*%
%ADD10C,1.600000*%
%TD*%
%TA.AperFunction,ComponentPad*%
%ADD11O,1.600000X1.600000*%
%TD*%
%TA.AperFunction,ComponentPad*%
%ADD12C,1.800000*%
%TD*%
%TA.AperFunction,ComponentPad*%
%ADD13R,1.800000X1.800000*%
%TD*%
%TA.AperFunction,ComponentPad*%
%ADD14R,2.200000X2.200000*%
%TD*%
%TA.AperFunction,ComponentPad*%
%ADD15O,2.200000X2.200000*%
%TD*%
%TA.AperFunction,ComponentPad*%
%ADD16R,1.500000X1.500000*%
%TD*%
%TA.AperFunction,ComponentPad*%
%ADD17C,1.500000*%
%TD*%
%TA.AperFunction,ComponentPad*%
%ADD18R,1.700000X1.700000*%
%TD*%
%TA.AperFunction,ComponentPad*%
%ADD19O,1.700000X1.700000*%
%TD*%
%TA.AperFunction,ComponentPad*%
%ADD20C,4.500000*%
%TD*%
%TA.AperFunction,ComponentPad*%
%ADD21O,1.250000X1.250000*%
%TD*%
%TA.AperFunction,Conductor*%
%ADD22C,0.304800*%
%TD*%
%TA.AperFunction,Conductor*%
%ADD23C,1.270000*%
%TD*%
G04 APERTURE END LIST*
D10*
%TO.P,R3,1*%
%TO.N,/LDA*%
X132305000Y-88265000D03*
D11*
%TO.P,R3,2*%
%TO.N,Net-(D4-A)*%
X134845000Y-88265000D03*
%TD*%
D12*
%TO.P,D4,2,A*%
%TO.N,Net-(D4-A)*%
X145415000Y-87630000D03*
D13*
%TO.P,D4,1,K*%
%TO.N,/RL*%
X147955000Y-87630000D03*
%TD*%
D14*
%TO.P,D2,1,K*%
%TO.N,/R1A*%
X132080000Y-80010000D03*
D15*
%TO.P,D2,2,A*%
%TO.N,Net-(D2-A)*%
X134620000Y-80010000D03*
%TD*%
D10*
%TO.P,C1,2*%
%TO.N,/LDC*%
X147935000Y-79375000D03*
%TO.P,C1,1*%
%TO.N,/RL*%
X145435000Y-79375000D03*
%TD*%
%TO.P,R2,1*%
%TO.N,/RL*%
X145415000Y-83185000D03*
D11*
%TO.P,R2,2*%
%TO.N,/LDC*%
X147955000Y-83185000D03*
%TD*%
D10*
%TO.P,R1,1*%
%TO.N,/R1A*%
X133575000Y-94615000D03*
D11*
%TO.P,R1,2*%
%TO.N,/QE*%
X136115000Y-94615000D03*
%TD*%
D14*
%TO.P,D3,1,K*%
%TO.N,Net-(D2-A)*%
X134818234Y-83820000D03*
D15*
%TO.P,D3,2,A*%
%TO.N,/LDA*%
X132278234Y-83820000D03*
%TD*%
D14*
%TO.P,D1,1,K*%
%TO.N,/RL*%
X134818234Y-76200000D03*
D15*
%TO.P,D1,2,A*%
%TO.N,/R1A*%
X132278234Y-76200000D03*
%TD*%
D16*
%TO.P,Q1,1,E*%
%TO.N,/QE*%
X146939000Y-96520000D03*
D17*
%TO.P,Q1,2,B*%
%TO.N,/LDC*%
X146939000Y-93980000D03*
%TO.P,Q1,3,C*%
%TO.N,/PDC*%
X146939000Y-91440000D03*
%TD*%
D18*
%TO.P,J1,1,Pin_1*%
%TO.N,/R1A*%
X133604000Y-71628000D03*
D19*
%TO.P,J1,2,Pin_2*%
%TO.N,/LDA*%
X136144000Y-71628000D03*
%TO.P,J1,3,Pin_3*%
%TO.N,/PDC*%
X138684000Y-71628000D03*
%TO.P,J1,4,Pin_4*%
%TO.N,/RL*%
X141224000Y-71628000D03*
%TO.P,J1,5,Pin_5*%
%TO.N,/QE*%
X143764000Y-71628000D03*
%TO.P,J1,6,Pin_6*%
%TO.N,/LDC*%
X146304000Y-71628000D03*
%TD*%
D20*
%TO.P,LD1,4*%
%TO.N,N/C*%
X140398968Y-79700800D03*
X140398968Y-98724800D03*
D21*
%TO.P,LD1,3*%
%TO.N,/LDA*%
X141398968Y-89195800D03*
%TO.P,LD1,2*%
%TO.N,/LDC*%
X140398968Y-88095800D03*
%TO.P,LD1,1*%
%TO.N,/PDC*%
X139398968Y-89195800D03*
%TD*%
D22*
%TO.N,Net-(D4-A)*%
X134845000Y-88265000D02*
X134874000Y-88265000D01*
X134874000Y-88265000D02*
X139446000Y-92837000D01*
X147193000Y-89408000D02*
X146304000Y-89408000D01*
X139446000Y-92837000D02*
X147574000Y-92837000D01*
X147574000Y-92837000D02*
X148336000Y-92075000D01*
X148336000Y-92075000D02*
X148336000Y-90551000D01*
X148336000Y-90551000D02*
X147193000Y-89408000D01*
X146304000Y-89408000D02*
X145415000Y-88519000D01*
X145415000Y-88519000D02*
X145415000Y-87630000D01*
%TO.N,/QE*%
X145542000Y-69850000D02*
X148209000Y-69850000D01*
X143764000Y-71628000D02*
X145542000Y-69850000D01*
X148209000Y-69850000D02*
X149479000Y-71120000D01*
X149479000Y-71120000D02*
X149479000Y-94742000D01*
X149479000Y-94742000D02*
X147701000Y-96520000D01*
X147701000Y-96520000D02*
X146939000Y-96520000D01*
D23*
%TO.N,/PDC*%
X146939000Y-91440000D02*
X140759285Y-91440000D01*
X140759285Y-91440000D02*
X139398968Y-90079683D01*
X139398968Y-90079683D02*
X139398968Y-89195800D01*
D22*
%TO.N,/RL*%
X147955000Y-87630000D02*
X147955000Y-85725000D01*
X147955000Y-85725000D02*
X145415000Y-83185000D01*
%TO.N,/LDC*%
X146304000Y-71628000D02*
X146304000Y-77744000D01*
X146304000Y-77744000D02*
X147935000Y-79375000D01*
%TO.N,/LDA*%
X130302000Y-81843766D02*
X132278234Y-83820000D01*
X130302000Y-74930000D02*
X130302000Y-81843766D01*
X131064000Y-74168000D02*
X130302000Y-74930000D01*
X136144000Y-71628000D02*
X133604000Y-74168000D01*
X133604000Y-74168000D02*
X131064000Y-74168000D01*
%TO.N,/PDC*%
X138684000Y-71628000D02*
X137414000Y-72898000D01*
X137414000Y-87210832D02*
X139398968Y-89195800D01*
X137414000Y-72898000D02*
X137414000Y-87210832D01*
%TD*%
M02*
