%TF.GenerationSoftware,KiCad,Pcbnew,7.0.6-7.0.6~ubuntu22.04.1*%
%TF.CreationDate,2023-08-18T10:05:56-04:00*%
%TF.ProjectId,laserSim,6c617365-7253-4696-9d2e-6b696361645f,rev?*%
%TF.SameCoordinates,Original*%
%TF.FileFunction,Legend,Top*%
%TF.FilePolarity,Positive*%
%FSLAX46Y46*%
G04 Gerber Fmt 4.6, Leading zero omitted, Abs format (unit mm)*
G04 Created by KiCad (PCBNEW 7.0.6-7.0.6~ubuntu22.04.1) date 2023-08-18 10:05:56*
%MOMM*%
%LPD*%
G01*
G04 APERTURE LIST*
%ADD10C,0.150000*%
%ADD11C,0.152400*%
%ADD12C,0.120000*%
G04 APERTURE END LIST*
D10*
X130511779Y-98025009D02*
X130845112Y-98025009D01*
X130987969Y-98548819D02*
X130511779Y-98548819D01*
X130511779Y-98548819D02*
X130511779Y-97548819D01*
X130511779Y-97548819D02*
X130987969Y-97548819D01*
X131416541Y-98453580D02*
X131464160Y-98501200D01*
X131464160Y-98501200D02*
X131416541Y-98548819D01*
X131416541Y-98548819D02*
X131368922Y-98501200D01*
X131368922Y-98501200D02*
X131416541Y-98453580D01*
X131416541Y-98453580D02*
X131416541Y-98548819D01*
X132654636Y-98548819D02*
X132654636Y-97548819D01*
X132654636Y-98025009D02*
X133226064Y-98025009D01*
X133226064Y-98548819D02*
X133226064Y-97548819D01*
X134130826Y-98548819D02*
X134130826Y-98025009D01*
X134130826Y-98025009D02*
X134083207Y-97929771D01*
X134083207Y-97929771D02*
X133987969Y-97882152D01*
X133987969Y-97882152D02*
X133797493Y-97882152D01*
X133797493Y-97882152D02*
X133702255Y-97929771D01*
X134130826Y-98501200D02*
X134035588Y-98548819D01*
X134035588Y-98548819D02*
X133797493Y-98548819D01*
X133797493Y-98548819D02*
X133702255Y-98501200D01*
X133702255Y-98501200D02*
X133654636Y-98405961D01*
X133654636Y-98405961D02*
X133654636Y-98310723D01*
X133654636Y-98310723D02*
X133702255Y-98215485D01*
X133702255Y-98215485D02*
X133797493Y-98167866D01*
X133797493Y-98167866D02*
X134035588Y-98167866D01*
X134035588Y-98167866D02*
X134130826Y-98120247D01*
X134511779Y-97882152D02*
X135035588Y-97882152D01*
X135035588Y-97882152D02*
X134511779Y-98548819D01*
X134511779Y-98548819D02*
X135035588Y-98548819D01*
X135797493Y-98501200D02*
X135702255Y-98548819D01*
X135702255Y-98548819D02*
X135511779Y-98548819D01*
X135511779Y-98548819D02*
X135416541Y-98501200D01*
X135416541Y-98501200D02*
X135368922Y-98405961D01*
X135368922Y-98405961D02*
X135368922Y-98025009D01*
X135368922Y-98025009D02*
X135416541Y-97929771D01*
X135416541Y-97929771D02*
X135511779Y-97882152D01*
X135511779Y-97882152D02*
X135702255Y-97882152D01*
X135702255Y-97882152D02*
X135797493Y-97929771D01*
X135797493Y-97929771D02*
X135845112Y-98025009D01*
X135845112Y-98025009D02*
X135845112Y-98120247D01*
X135845112Y-98120247D02*
X135368922Y-98215485D01*
X136273684Y-97882152D02*
X136273684Y-98548819D01*
X136273684Y-97977390D02*
X136321303Y-97929771D01*
X136321303Y-97929771D02*
X136416541Y-97882152D01*
X136416541Y-97882152D02*
X136559398Y-97882152D01*
X136559398Y-97882152D02*
X136654636Y-97929771D01*
X136654636Y-97929771D02*
X136702255Y-98025009D01*
X136702255Y-98025009D02*
X136702255Y-98548819D01*
D11*
X144483603Y-68727689D02*
X144423127Y-68848641D01*
X144423127Y-68848641D02*
X144302175Y-68969594D01*
X144302175Y-68969594D02*
X144120746Y-69151022D01*
X144120746Y-69151022D02*
X144060270Y-69271975D01*
X144060270Y-69271975D02*
X144060270Y-69392927D01*
X144362651Y-69332451D02*
X144302175Y-69453403D01*
X144302175Y-69453403D02*
X144181222Y-69574356D01*
X144181222Y-69574356D02*
X143939317Y-69634832D01*
X143939317Y-69634832D02*
X143515984Y-69634832D01*
X143515984Y-69634832D02*
X143274079Y-69574356D01*
X143274079Y-69574356D02*
X143153127Y-69453403D01*
X143153127Y-69453403D02*
X143092651Y-69332451D01*
X143092651Y-69332451D02*
X143092651Y-69090546D01*
X143092651Y-69090546D02*
X143153127Y-68969594D01*
X143153127Y-68969594D02*
X143274079Y-68848641D01*
X143274079Y-68848641D02*
X143515984Y-68788165D01*
X143515984Y-68788165D02*
X143939317Y-68788165D01*
X143939317Y-68788165D02*
X144181222Y-68848641D01*
X144181222Y-68848641D02*
X144302175Y-68969594D01*
X144302175Y-68969594D02*
X144362651Y-69090546D01*
X144362651Y-69090546D02*
X144362651Y-69332451D01*
X143697413Y-68243880D02*
X143697413Y-67820546D01*
X144362651Y-67639118D02*
X144362651Y-68243880D01*
X144362651Y-68243880D02*
X143092651Y-68243880D01*
X143092651Y-68243880D02*
X143092651Y-67639118D01*
X146902651Y-68969594D02*
X146902651Y-69574356D01*
X146902651Y-69574356D02*
X145632651Y-69574356D01*
X146902651Y-68546261D02*
X145632651Y-68546261D01*
X145632651Y-68546261D02*
X145632651Y-68243880D01*
X145632651Y-68243880D02*
X145693127Y-68062451D01*
X145693127Y-68062451D02*
X145814079Y-67941499D01*
X145814079Y-67941499D02*
X145935032Y-67881022D01*
X145935032Y-67881022D02*
X146176936Y-67820546D01*
X146176936Y-67820546D02*
X146358365Y-67820546D01*
X146358365Y-67820546D02*
X146600270Y-67881022D01*
X146600270Y-67881022D02*
X146721222Y-67941499D01*
X146721222Y-67941499D02*
X146842175Y-68062451D01*
X146842175Y-68062451D02*
X146902651Y-68243880D01*
X146902651Y-68243880D02*
X146902651Y-68546261D01*
X146781698Y-66550546D02*
X146842175Y-66611022D01*
X146842175Y-66611022D02*
X146902651Y-66792451D01*
X146902651Y-66792451D02*
X146902651Y-66913403D01*
X146902651Y-66913403D02*
X146842175Y-67094832D01*
X146842175Y-67094832D02*
X146721222Y-67215784D01*
X146721222Y-67215784D02*
X146600270Y-67276261D01*
X146600270Y-67276261D02*
X146358365Y-67336737D01*
X146358365Y-67336737D02*
X146176936Y-67336737D01*
X146176936Y-67336737D02*
X145935032Y-67276261D01*
X145935032Y-67276261D02*
X145814079Y-67215784D01*
X145814079Y-67215784D02*
X145693127Y-67094832D01*
X145693127Y-67094832D02*
X145632651Y-66913403D01*
X145632651Y-66913403D02*
X145632651Y-66792451D01*
X145632651Y-66792451D02*
X145693127Y-66611022D01*
X145693127Y-66611022D02*
X145753603Y-66550546D01*
X142207215Y-102198651D02*
X142932929Y-102198651D01*
X142570072Y-103468651D02*
X142570072Y-102198651D01*
X143598167Y-102863889D02*
X143598167Y-103468651D01*
X143174834Y-102198651D02*
X143598167Y-102863889D01*
X143598167Y-102863889D02*
X144021501Y-102198651D01*
X144444833Y-103468651D02*
X144444833Y-102198651D01*
X144444833Y-102198651D02*
X144928643Y-102198651D01*
X144928643Y-102198651D02*
X145049595Y-102259127D01*
X145049595Y-102259127D02*
X145110072Y-102319603D01*
X145110072Y-102319603D02*
X145170548Y-102440555D01*
X145170548Y-102440555D02*
X145170548Y-102621984D01*
X145170548Y-102621984D02*
X145110072Y-102742936D01*
X145110072Y-102742936D02*
X145049595Y-102803413D01*
X145049595Y-102803413D02*
X144928643Y-102863889D01*
X144928643Y-102863889D02*
X144444833Y-102863889D01*
X145714833Y-102803413D02*
X146138167Y-102803413D01*
X146319595Y-103468651D02*
X145714833Y-103468651D01*
X145714833Y-103468651D02*
X145714833Y-102198651D01*
X145714833Y-102198651D02*
X146319595Y-102198651D01*
X147771024Y-103105794D02*
X148375786Y-103105794D01*
X147650072Y-103468651D02*
X148073405Y-102198651D01*
X148073405Y-102198651D02*
X148496739Y-103468651D01*
X139282651Y-69574356D02*
X138012651Y-69574356D01*
X138012651Y-69574356D02*
X138012651Y-69090546D01*
X138012651Y-69090546D02*
X138073127Y-68969594D01*
X138073127Y-68969594D02*
X138133603Y-68909117D01*
X138133603Y-68909117D02*
X138254555Y-68848641D01*
X138254555Y-68848641D02*
X138435984Y-68848641D01*
X138435984Y-68848641D02*
X138556936Y-68909117D01*
X138556936Y-68909117D02*
X138617413Y-68969594D01*
X138617413Y-68969594D02*
X138677889Y-69090546D01*
X138677889Y-69090546D02*
X138677889Y-69574356D01*
X139282651Y-68304356D02*
X138012651Y-68304356D01*
X138012651Y-68304356D02*
X138012651Y-68001975D01*
X138012651Y-68001975D02*
X138073127Y-67820546D01*
X138073127Y-67820546D02*
X138194079Y-67699594D01*
X138194079Y-67699594D02*
X138315032Y-67639117D01*
X138315032Y-67639117D02*
X138556936Y-67578641D01*
X138556936Y-67578641D02*
X138738365Y-67578641D01*
X138738365Y-67578641D02*
X138980270Y-67639117D01*
X138980270Y-67639117D02*
X139101222Y-67699594D01*
X139101222Y-67699594D02*
X139222175Y-67820546D01*
X139222175Y-67820546D02*
X139282651Y-68001975D01*
X139282651Y-68001975D02*
X139282651Y-68304356D01*
X139161698Y-66308641D02*
X139222175Y-66369117D01*
X139222175Y-66369117D02*
X139282651Y-66550546D01*
X139282651Y-66550546D02*
X139282651Y-66671498D01*
X139282651Y-66671498D02*
X139222175Y-66852927D01*
X139222175Y-66852927D02*
X139101222Y-66973879D01*
X139101222Y-66973879D02*
X138980270Y-67034356D01*
X138980270Y-67034356D02*
X138738365Y-67094832D01*
X138738365Y-67094832D02*
X138556936Y-67094832D01*
X138556936Y-67094832D02*
X138315032Y-67034356D01*
X138315032Y-67034356D02*
X138194079Y-66973879D01*
X138194079Y-66973879D02*
X138073127Y-66852927D01*
X138073127Y-66852927D02*
X138012651Y-66671498D01*
X138012651Y-66671498D02*
X138012651Y-66550546D01*
X138012651Y-66550546D02*
X138073127Y-66369117D01*
X138073127Y-66369117D02*
X138133603Y-66308641D01*
X136742651Y-68969594D02*
X136742651Y-69574356D01*
X136742651Y-69574356D02*
X135472651Y-69574356D01*
X136742651Y-68546261D02*
X135472651Y-68546261D01*
X135472651Y-68546261D02*
X135472651Y-68243880D01*
X135472651Y-68243880D02*
X135533127Y-68062451D01*
X135533127Y-68062451D02*
X135654079Y-67941499D01*
X135654079Y-67941499D02*
X135775032Y-67881022D01*
X135775032Y-67881022D02*
X136016936Y-67820546D01*
X136016936Y-67820546D02*
X136198365Y-67820546D01*
X136198365Y-67820546D02*
X136440270Y-67881022D01*
X136440270Y-67881022D02*
X136561222Y-67941499D01*
X136561222Y-67941499D02*
X136682175Y-68062451D01*
X136682175Y-68062451D02*
X136742651Y-68243880D01*
X136742651Y-68243880D02*
X136742651Y-68546261D01*
X136379794Y-67336737D02*
X136379794Y-66731975D01*
X136742651Y-67457689D02*
X135472651Y-67034356D01*
X135472651Y-67034356D02*
X136742651Y-66611022D01*
X141822651Y-68848641D02*
X141217889Y-69271975D01*
X141822651Y-69574356D02*
X140552651Y-69574356D01*
X140552651Y-69574356D02*
X140552651Y-69090546D01*
X140552651Y-69090546D02*
X140613127Y-68969594D01*
X140613127Y-68969594D02*
X140673603Y-68909117D01*
X140673603Y-68909117D02*
X140794555Y-68848641D01*
X140794555Y-68848641D02*
X140975984Y-68848641D01*
X140975984Y-68848641D02*
X141096936Y-68909117D01*
X141096936Y-68909117D02*
X141157413Y-68969594D01*
X141157413Y-68969594D02*
X141217889Y-69090546D01*
X141217889Y-69090546D02*
X141217889Y-69574356D01*
X141822651Y-67699594D02*
X141822651Y-68304356D01*
X141822651Y-68304356D02*
X140552651Y-68304356D01*
D10*
X144291207Y-99224819D02*
X143957874Y-98748628D01*
X143719779Y-99224819D02*
X143719779Y-98224819D01*
X143719779Y-98224819D02*
X144100731Y-98224819D01*
X144100731Y-98224819D02*
X144195969Y-98272438D01*
X144195969Y-98272438D02*
X144243588Y-98320057D01*
X144243588Y-98320057D02*
X144291207Y-98415295D01*
X144291207Y-98415295D02*
X144291207Y-98558152D01*
X144291207Y-98558152D02*
X144243588Y-98653390D01*
X144243588Y-98653390D02*
X144195969Y-98701009D01*
X144195969Y-98701009D02*
X144100731Y-98748628D01*
X144100731Y-98748628D02*
X143719779Y-98748628D01*
X145100731Y-99177200D02*
X145005493Y-99224819D01*
X145005493Y-99224819D02*
X144815017Y-99224819D01*
X144815017Y-99224819D02*
X144719779Y-99177200D01*
X144719779Y-99177200D02*
X144672160Y-99081961D01*
X144672160Y-99081961D02*
X144672160Y-98701009D01*
X144672160Y-98701009D02*
X144719779Y-98605771D01*
X144719779Y-98605771D02*
X144815017Y-98558152D01*
X144815017Y-98558152D02*
X145005493Y-98558152D01*
X145005493Y-98558152D02*
X145100731Y-98605771D01*
X145100731Y-98605771D02*
X145148350Y-98701009D01*
X145148350Y-98701009D02*
X145148350Y-98796247D01*
X145148350Y-98796247D02*
X144672160Y-98891485D01*
X145481684Y-98558152D02*
X145719779Y-99224819D01*
X145719779Y-99224819D02*
X145957874Y-98558152D01*
X147624541Y-99224819D02*
X147053113Y-99224819D01*
X147338827Y-99224819D02*
X147338827Y-98224819D01*
X147338827Y-98224819D02*
X147243589Y-98367676D01*
X147243589Y-98367676D02*
X147148351Y-98462914D01*
X147148351Y-98462914D02*
X147053113Y-98510533D01*
X148053113Y-99129580D02*
X148100732Y-99177200D01*
X148100732Y-99177200D02*
X148053113Y-99224819D01*
X148053113Y-99224819D02*
X148005494Y-99177200D01*
X148005494Y-99177200D02*
X148053113Y-99129580D01*
X148053113Y-99129580D02*
X148053113Y-99224819D01*
X148719779Y-98224819D02*
X148815017Y-98224819D01*
X148815017Y-98224819D02*
X148910255Y-98272438D01*
X148910255Y-98272438D02*
X148957874Y-98320057D01*
X148957874Y-98320057D02*
X149005493Y-98415295D01*
X149005493Y-98415295D02*
X149053112Y-98605771D01*
X149053112Y-98605771D02*
X149053112Y-98843866D01*
X149053112Y-98843866D02*
X149005493Y-99034342D01*
X149005493Y-99034342D02*
X148957874Y-99129580D01*
X148957874Y-99129580D02*
X148910255Y-99177200D01*
X148910255Y-99177200D02*
X148815017Y-99224819D01*
X148815017Y-99224819D02*
X148719779Y-99224819D01*
X148719779Y-99224819D02*
X148624541Y-99177200D01*
X148624541Y-99177200D02*
X148576922Y-99129580D01*
X148576922Y-99129580D02*
X148529303Y-99034342D01*
X148529303Y-99034342D02*
X148481684Y-98843866D01*
X148481684Y-98843866D02*
X148481684Y-98605771D01*
X148481684Y-98605771D02*
X148529303Y-98415295D01*
X148529303Y-98415295D02*
X148576922Y-98320057D01*
X148576922Y-98320057D02*
X148624541Y-98272438D01*
X148624541Y-98272438D02*
X148719779Y-98224819D01*
X143862636Y-100263390D02*
X143767398Y-100215771D01*
X143767398Y-100215771D02*
X143719779Y-100168152D01*
X143719779Y-100168152D02*
X143672160Y-100072914D01*
X143672160Y-100072914D02*
X143672160Y-100025295D01*
X143672160Y-100025295D02*
X143719779Y-99930057D01*
X143719779Y-99930057D02*
X143767398Y-99882438D01*
X143767398Y-99882438D02*
X143862636Y-99834819D01*
X143862636Y-99834819D02*
X144053112Y-99834819D01*
X144053112Y-99834819D02*
X144148350Y-99882438D01*
X144148350Y-99882438D02*
X144195969Y-99930057D01*
X144195969Y-99930057D02*
X144243588Y-100025295D01*
X144243588Y-100025295D02*
X144243588Y-100072914D01*
X144243588Y-100072914D02*
X144195969Y-100168152D01*
X144195969Y-100168152D02*
X144148350Y-100215771D01*
X144148350Y-100215771D02*
X144053112Y-100263390D01*
X144053112Y-100263390D02*
X143862636Y-100263390D01*
X143862636Y-100263390D02*
X143767398Y-100311009D01*
X143767398Y-100311009D02*
X143719779Y-100358628D01*
X143719779Y-100358628D02*
X143672160Y-100453866D01*
X143672160Y-100453866D02*
X143672160Y-100644342D01*
X143672160Y-100644342D02*
X143719779Y-100739580D01*
X143719779Y-100739580D02*
X143767398Y-100787200D01*
X143767398Y-100787200D02*
X143862636Y-100834819D01*
X143862636Y-100834819D02*
X144053112Y-100834819D01*
X144053112Y-100834819D02*
X144148350Y-100787200D01*
X144148350Y-100787200D02*
X144195969Y-100739580D01*
X144195969Y-100739580D02*
X144243588Y-100644342D01*
X144243588Y-100644342D02*
X144243588Y-100453866D01*
X144243588Y-100453866D02*
X144195969Y-100358628D01*
X144195969Y-100358628D02*
X144148350Y-100311009D01*
X144148350Y-100311009D02*
X144053112Y-100263390D01*
X145386445Y-99787200D02*
X144529303Y-101072914D01*
X145672160Y-99930057D02*
X145719779Y-99882438D01*
X145719779Y-99882438D02*
X145815017Y-99834819D01*
X145815017Y-99834819D02*
X146053112Y-99834819D01*
X146053112Y-99834819D02*
X146148350Y-99882438D01*
X146148350Y-99882438D02*
X146195969Y-99930057D01*
X146195969Y-99930057D02*
X146243588Y-100025295D01*
X146243588Y-100025295D02*
X146243588Y-100120533D01*
X146243588Y-100120533D02*
X146195969Y-100263390D01*
X146195969Y-100263390D02*
X145624541Y-100834819D01*
X145624541Y-100834819D02*
X146243588Y-100834819D01*
X146862636Y-99834819D02*
X146957874Y-99834819D01*
X146957874Y-99834819D02*
X147053112Y-99882438D01*
X147053112Y-99882438D02*
X147100731Y-99930057D01*
X147100731Y-99930057D02*
X147148350Y-100025295D01*
X147148350Y-100025295D02*
X147195969Y-100215771D01*
X147195969Y-100215771D02*
X147195969Y-100453866D01*
X147195969Y-100453866D02*
X147148350Y-100644342D01*
X147148350Y-100644342D02*
X147100731Y-100739580D01*
X147100731Y-100739580D02*
X147053112Y-100787200D01*
X147053112Y-100787200D02*
X146957874Y-100834819D01*
X146957874Y-100834819D02*
X146862636Y-100834819D01*
X146862636Y-100834819D02*
X146767398Y-100787200D01*
X146767398Y-100787200D02*
X146719779Y-100739580D01*
X146719779Y-100739580D02*
X146672160Y-100644342D01*
X146672160Y-100644342D02*
X146624541Y-100453866D01*
X146624541Y-100453866D02*
X146624541Y-100215771D01*
X146624541Y-100215771D02*
X146672160Y-100025295D01*
X146672160Y-100025295D02*
X146719779Y-99930057D01*
X146719779Y-99930057D02*
X146767398Y-99882438D01*
X146767398Y-99882438D02*
X146862636Y-99834819D01*
X147576922Y-99930057D02*
X147624541Y-99882438D01*
X147624541Y-99882438D02*
X147719779Y-99834819D01*
X147719779Y-99834819D02*
X147957874Y-99834819D01*
X147957874Y-99834819D02*
X148053112Y-99882438D01*
X148053112Y-99882438D02*
X148100731Y-99930057D01*
X148100731Y-99930057D02*
X148148350Y-100025295D01*
X148148350Y-100025295D02*
X148148350Y-100120533D01*
X148148350Y-100120533D02*
X148100731Y-100263390D01*
X148100731Y-100263390D02*
X147529303Y-100834819D01*
X147529303Y-100834819D02*
X148148350Y-100834819D01*
X148481684Y-99834819D02*
X149100731Y-99834819D01*
X149100731Y-99834819D02*
X148767398Y-100215771D01*
X148767398Y-100215771D02*
X148910255Y-100215771D01*
X148910255Y-100215771D02*
X149005493Y-100263390D01*
X149005493Y-100263390D02*
X149053112Y-100311009D01*
X149053112Y-100311009D02*
X149100731Y-100406247D01*
X149100731Y-100406247D02*
X149100731Y-100644342D01*
X149100731Y-100644342D02*
X149053112Y-100739580D01*
X149053112Y-100739580D02*
X149005493Y-100787200D01*
X149005493Y-100787200D02*
X148910255Y-100834819D01*
X148910255Y-100834819D02*
X148624541Y-100834819D01*
X148624541Y-100834819D02*
X148529303Y-100787200D01*
X148529303Y-100787200D02*
X148481684Y-100739580D01*
D11*
X134202651Y-68848641D02*
X133597889Y-69271975D01*
X134202651Y-69574356D02*
X132932651Y-69574356D01*
X132932651Y-69574356D02*
X132932651Y-69090546D01*
X132932651Y-69090546D02*
X132993127Y-68969594D01*
X132993127Y-68969594D02*
X133053603Y-68909117D01*
X133053603Y-68909117D02*
X133174555Y-68848641D01*
X133174555Y-68848641D02*
X133355984Y-68848641D01*
X133355984Y-68848641D02*
X133476936Y-68909117D01*
X133476936Y-68909117D02*
X133537413Y-68969594D01*
X133537413Y-68969594D02*
X133597889Y-69090546D01*
X133597889Y-69090546D02*
X133597889Y-69574356D01*
X134202651Y-67639117D02*
X134202651Y-68364832D01*
X134202651Y-68001975D02*
X132932651Y-68001975D01*
X132932651Y-68001975D02*
X133114079Y-68122927D01*
X133114079Y-68122927D02*
X133235032Y-68243879D01*
X133235032Y-68243879D02*
X133295508Y-68364832D01*
X133839794Y-67155308D02*
X133839794Y-66550546D01*
X134202651Y-67276260D02*
X132932651Y-66852927D01*
X132932651Y-66852927D02*
X134202651Y-66429593D01*
X131309405Y-101423951D02*
X130704643Y-101423951D01*
X130704643Y-101423951D02*
X130704643Y-100153951D01*
X131672262Y-101061094D02*
X132277024Y-101061094D01*
X131551310Y-101423951D02*
X131974643Y-100153951D01*
X131974643Y-100153951D02*
X132397977Y-101423951D01*
X132760833Y-101363475D02*
X132942262Y-101423951D01*
X132942262Y-101423951D02*
X133244643Y-101423951D01*
X133244643Y-101423951D02*
X133365595Y-101363475D01*
X133365595Y-101363475D02*
X133426071Y-101302998D01*
X133426071Y-101302998D02*
X133486548Y-101182046D01*
X133486548Y-101182046D02*
X133486548Y-101061094D01*
X133486548Y-101061094D02*
X133426071Y-100940141D01*
X133426071Y-100940141D02*
X133365595Y-100879665D01*
X133365595Y-100879665D02*
X133244643Y-100819189D01*
X133244643Y-100819189D02*
X133002738Y-100758713D01*
X133002738Y-100758713D02*
X132881786Y-100698236D01*
X132881786Y-100698236D02*
X132821309Y-100637760D01*
X132821309Y-100637760D02*
X132760833Y-100516808D01*
X132760833Y-100516808D02*
X132760833Y-100395855D01*
X132760833Y-100395855D02*
X132821309Y-100274903D01*
X132821309Y-100274903D02*
X132881786Y-100214427D01*
X132881786Y-100214427D02*
X133002738Y-100153951D01*
X133002738Y-100153951D02*
X133305119Y-100153951D01*
X133305119Y-100153951D02*
X133486548Y-100214427D01*
X134030833Y-100758713D02*
X134454167Y-100758713D01*
X134635595Y-101423951D02*
X134030833Y-101423951D01*
X134030833Y-101423951D02*
X134030833Y-100153951D01*
X134030833Y-100153951D02*
X134635595Y-100153951D01*
X135905596Y-101423951D02*
X135482262Y-100819189D01*
X135179881Y-101423951D02*
X135179881Y-100153951D01*
X135179881Y-100153951D02*
X135663691Y-100153951D01*
X135663691Y-100153951D02*
X135784643Y-100214427D01*
X135784643Y-100214427D02*
X135845120Y-100274903D01*
X135845120Y-100274903D02*
X135905596Y-100395855D01*
X135905596Y-100395855D02*
X135905596Y-100577284D01*
X135905596Y-100577284D02*
X135845120Y-100698236D01*
X135845120Y-100698236D02*
X135784643Y-100758713D01*
X135784643Y-100758713D02*
X135663691Y-100819189D01*
X135663691Y-100819189D02*
X135179881Y-100819189D01*
X130644167Y-103408175D02*
X130825596Y-103468651D01*
X130825596Y-103468651D02*
X131127977Y-103468651D01*
X131127977Y-103468651D02*
X131248929Y-103408175D01*
X131248929Y-103408175D02*
X131309405Y-103347698D01*
X131309405Y-103347698D02*
X131369882Y-103226746D01*
X131369882Y-103226746D02*
X131369882Y-103105794D01*
X131369882Y-103105794D02*
X131309405Y-102984841D01*
X131309405Y-102984841D02*
X131248929Y-102924365D01*
X131248929Y-102924365D02*
X131127977Y-102863889D01*
X131127977Y-102863889D02*
X130886072Y-102803413D01*
X130886072Y-102803413D02*
X130765120Y-102742936D01*
X130765120Y-102742936D02*
X130704643Y-102682460D01*
X130704643Y-102682460D02*
X130644167Y-102561508D01*
X130644167Y-102561508D02*
X130644167Y-102440555D01*
X130644167Y-102440555D02*
X130704643Y-102319603D01*
X130704643Y-102319603D02*
X130765120Y-102259127D01*
X130765120Y-102259127D02*
X130886072Y-102198651D01*
X130886072Y-102198651D02*
X131188453Y-102198651D01*
X131188453Y-102198651D02*
X131369882Y-102259127D01*
X131914167Y-103468651D02*
X131914167Y-102198651D01*
X132518929Y-103468651D02*
X132518929Y-102198651D01*
X132518929Y-102198651D02*
X132942263Y-103105794D01*
X132942263Y-103105794D02*
X133365596Y-102198651D01*
X133365596Y-102198651D02*
X133365596Y-103468651D01*
X133970358Y-102198651D02*
X133970358Y-103226746D01*
X133970358Y-103226746D02*
X134030835Y-103347698D01*
X134030835Y-103347698D02*
X134091311Y-103408175D01*
X134091311Y-103408175D02*
X134212263Y-103468651D01*
X134212263Y-103468651D02*
X134454168Y-103468651D01*
X134454168Y-103468651D02*
X134575120Y-103408175D01*
X134575120Y-103408175D02*
X134635597Y-103347698D01*
X134635597Y-103347698D02*
X134696073Y-103226746D01*
X134696073Y-103226746D02*
X134696073Y-102198651D01*
X135905596Y-103468651D02*
X135300834Y-103468651D01*
X135300834Y-103468651D02*
X135300834Y-102198651D01*
X136268453Y-103105794D02*
X136873215Y-103105794D01*
X136147501Y-103468651D02*
X136570834Y-102198651D01*
X136570834Y-102198651D02*
X136994168Y-103468651D01*
X137236072Y-102198651D02*
X137961786Y-102198651D01*
X137598929Y-103468651D02*
X137598929Y-102198651D01*
X138627024Y-102198651D02*
X138868929Y-102198651D01*
X138868929Y-102198651D02*
X138989881Y-102259127D01*
X138989881Y-102259127D02*
X139110834Y-102380079D01*
X139110834Y-102380079D02*
X139171310Y-102621984D01*
X139171310Y-102621984D02*
X139171310Y-103045317D01*
X139171310Y-103045317D02*
X139110834Y-103287222D01*
X139110834Y-103287222D02*
X138989881Y-103408175D01*
X138989881Y-103408175D02*
X138868929Y-103468651D01*
X138868929Y-103468651D02*
X138627024Y-103468651D01*
X138627024Y-103468651D02*
X138506072Y-103408175D01*
X138506072Y-103408175D02*
X138385119Y-103287222D01*
X138385119Y-103287222D02*
X138324643Y-103045317D01*
X138324643Y-103045317D02*
X138324643Y-102621984D01*
X138324643Y-102621984D02*
X138385119Y-102380079D01*
X138385119Y-102380079D02*
X138506072Y-102259127D01*
X138506072Y-102259127D02*
X138627024Y-102198651D01*
X140441310Y-103468651D02*
X140017976Y-102863889D01*
X139715595Y-103468651D02*
X139715595Y-102198651D01*
X139715595Y-102198651D02*
X140199405Y-102198651D01*
X140199405Y-102198651D02*
X140320357Y-102259127D01*
X140320357Y-102259127D02*
X140380834Y-102319603D01*
X140380834Y-102319603D02*
X140441310Y-102440555D01*
X140441310Y-102440555D02*
X140441310Y-102621984D01*
X140441310Y-102621984D02*
X140380834Y-102742936D01*
X140380834Y-102742936D02*
X140320357Y-102803413D01*
X140320357Y-102803413D02*
X140199405Y-102863889D01*
X140199405Y-102863889D02*
X139715595Y-102863889D01*
D10*
X133408333Y-86349819D02*
X133075000Y-85873628D01*
X132836905Y-86349819D02*
X132836905Y-85349819D01*
X132836905Y-85349819D02*
X133217857Y-85349819D01*
X133217857Y-85349819D02*
X133313095Y-85397438D01*
X133313095Y-85397438D02*
X133360714Y-85445057D01*
X133360714Y-85445057D02*
X133408333Y-85540295D01*
X133408333Y-85540295D02*
X133408333Y-85683152D01*
X133408333Y-85683152D02*
X133360714Y-85778390D01*
X133360714Y-85778390D02*
X133313095Y-85826009D01*
X133313095Y-85826009D02*
X133217857Y-85873628D01*
X133217857Y-85873628D02*
X132836905Y-85873628D01*
X133741667Y-85349819D02*
X134360714Y-85349819D01*
X134360714Y-85349819D02*
X134027381Y-85730771D01*
X134027381Y-85730771D02*
X134170238Y-85730771D01*
X134170238Y-85730771D02*
X134265476Y-85778390D01*
X134265476Y-85778390D02*
X134313095Y-85826009D01*
X134313095Y-85826009D02*
X134360714Y-85921247D01*
X134360714Y-85921247D02*
X134360714Y-86159342D01*
X134360714Y-86159342D02*
X134313095Y-86254580D01*
X134313095Y-86254580D02*
X134265476Y-86302200D01*
X134265476Y-86302200D02*
X134170238Y-86349819D01*
X134170238Y-86349819D02*
X133884524Y-86349819D01*
X133884524Y-86349819D02*
X133789286Y-86302200D01*
X133789286Y-86302200D02*
X133741667Y-86254580D01*
X143025905Y-86306819D02*
X143025905Y-85306819D01*
X143025905Y-85306819D02*
X143264000Y-85306819D01*
X143264000Y-85306819D02*
X143406857Y-85354438D01*
X143406857Y-85354438D02*
X143502095Y-85449676D01*
X143502095Y-85449676D02*
X143549714Y-85544914D01*
X143549714Y-85544914D02*
X143597333Y-85735390D01*
X143597333Y-85735390D02*
X143597333Y-85878247D01*
X143597333Y-85878247D02*
X143549714Y-86068723D01*
X143549714Y-86068723D02*
X143502095Y-86163961D01*
X143502095Y-86163961D02*
X143406857Y-86259200D01*
X143406857Y-86259200D02*
X143264000Y-86306819D01*
X143264000Y-86306819D02*
X143025905Y-86306819D01*
X144454476Y-85640152D02*
X144454476Y-86306819D01*
X144216381Y-85259200D02*
X143978286Y-85973485D01*
X143978286Y-85973485D02*
X144597333Y-85973485D01*
X136421905Y-75003819D02*
X136421905Y-74003819D01*
X136421905Y-74003819D02*
X136660000Y-74003819D01*
X136660000Y-74003819D02*
X136802857Y-74051438D01*
X136802857Y-74051438D02*
X136898095Y-74146676D01*
X136898095Y-74146676D02*
X136945714Y-74241914D01*
X136945714Y-74241914D02*
X136993333Y-74432390D01*
X136993333Y-74432390D02*
X136993333Y-74575247D01*
X136993333Y-74575247D02*
X136945714Y-74765723D01*
X136945714Y-74765723D02*
X136898095Y-74860961D01*
X136898095Y-74860961D02*
X136802857Y-74956200D01*
X136802857Y-74956200D02*
X136660000Y-75003819D01*
X136660000Y-75003819D02*
X136421905Y-75003819D01*
X137374286Y-74099057D02*
X137421905Y-74051438D01*
X137421905Y-74051438D02*
X137517143Y-74003819D01*
X137517143Y-74003819D02*
X137755238Y-74003819D01*
X137755238Y-74003819D02*
X137850476Y-74051438D01*
X137850476Y-74051438D02*
X137898095Y-74099057D01*
X137898095Y-74099057D02*
X137945714Y-74194295D01*
X137945714Y-74194295D02*
X137945714Y-74289533D01*
X137945714Y-74289533D02*
X137898095Y-74432390D01*
X137898095Y-74432390D02*
X137326667Y-75003819D01*
X137326667Y-75003819D02*
X137945714Y-75003819D01*
X129718095Y-80464819D02*
X129718095Y-79464819D01*
X130289523Y-80464819D02*
X129860952Y-79893390D01*
X130289523Y-79464819D02*
X129718095Y-80036247D01*
X146518333Y-77684580D02*
X146470714Y-77732200D01*
X146470714Y-77732200D02*
X146327857Y-77779819D01*
X146327857Y-77779819D02*
X146232619Y-77779819D01*
X146232619Y-77779819D02*
X146089762Y-77732200D01*
X146089762Y-77732200D02*
X145994524Y-77636961D01*
X145994524Y-77636961D02*
X145946905Y-77541723D01*
X145946905Y-77541723D02*
X145899286Y-77351247D01*
X145899286Y-77351247D02*
X145899286Y-77208390D01*
X145899286Y-77208390D02*
X145946905Y-77017914D01*
X145946905Y-77017914D02*
X145994524Y-76922676D01*
X145994524Y-76922676D02*
X146089762Y-76827438D01*
X146089762Y-76827438D02*
X146232619Y-76779819D01*
X146232619Y-76779819D02*
X146327857Y-76779819D01*
X146327857Y-76779819D02*
X146470714Y-76827438D01*
X146470714Y-76827438D02*
X146518333Y-76875057D01*
X147470714Y-77779819D02*
X146899286Y-77779819D01*
X147185000Y-77779819D02*
X147185000Y-76779819D01*
X147185000Y-76779819D02*
X147089762Y-76922676D01*
X147089762Y-76922676D02*
X146994524Y-77017914D01*
X146994524Y-77017914D02*
X146899286Y-77065533D01*
X142454333Y-83639819D02*
X142121000Y-83163628D01*
X141882905Y-83639819D02*
X141882905Y-82639819D01*
X141882905Y-82639819D02*
X142263857Y-82639819D01*
X142263857Y-82639819D02*
X142359095Y-82687438D01*
X142359095Y-82687438D02*
X142406714Y-82735057D01*
X142406714Y-82735057D02*
X142454333Y-82830295D01*
X142454333Y-82830295D02*
X142454333Y-82973152D01*
X142454333Y-82973152D02*
X142406714Y-83068390D01*
X142406714Y-83068390D02*
X142359095Y-83116009D01*
X142359095Y-83116009D02*
X142263857Y-83163628D01*
X142263857Y-83163628D02*
X141882905Y-83163628D01*
X142835286Y-82735057D02*
X142882905Y-82687438D01*
X142882905Y-82687438D02*
X142978143Y-82639819D01*
X142978143Y-82639819D02*
X143216238Y-82639819D01*
X143216238Y-82639819D02*
X143311476Y-82687438D01*
X143311476Y-82687438D02*
X143359095Y-82735057D01*
X143359095Y-82735057D02*
X143406714Y-82830295D01*
X143406714Y-82830295D02*
X143406714Y-82925533D01*
X143406714Y-82925533D02*
X143359095Y-83068390D01*
X143359095Y-83068390D02*
X142787667Y-83639819D01*
X142787667Y-83639819D02*
X143406714Y-83639819D01*
X130770333Y-95450819D02*
X130437000Y-94974628D01*
X130198905Y-95450819D02*
X130198905Y-94450819D01*
X130198905Y-94450819D02*
X130579857Y-94450819D01*
X130579857Y-94450819D02*
X130675095Y-94498438D01*
X130675095Y-94498438D02*
X130722714Y-94546057D01*
X130722714Y-94546057D02*
X130770333Y-94641295D01*
X130770333Y-94641295D02*
X130770333Y-94784152D01*
X130770333Y-94784152D02*
X130722714Y-94879390D01*
X130722714Y-94879390D02*
X130675095Y-94927009D01*
X130675095Y-94927009D02*
X130579857Y-94974628D01*
X130579857Y-94974628D02*
X130198905Y-94974628D01*
X131722714Y-95450819D02*
X131151286Y-95450819D01*
X131437000Y-95450819D02*
X131437000Y-94450819D01*
X131437000Y-94450819D02*
X131341762Y-94593676D01*
X131341762Y-94593676D02*
X131246524Y-94688914D01*
X131246524Y-94688914D02*
X131151286Y-94736533D01*
X136548905Y-82750819D02*
X136548905Y-81750819D01*
X136548905Y-81750819D02*
X136787000Y-81750819D01*
X136787000Y-81750819D02*
X136929857Y-81798438D01*
X136929857Y-81798438D02*
X137025095Y-81893676D01*
X137025095Y-81893676D02*
X137072714Y-81988914D01*
X137072714Y-81988914D02*
X137120333Y-82179390D01*
X137120333Y-82179390D02*
X137120333Y-82322247D01*
X137120333Y-82322247D02*
X137072714Y-82512723D01*
X137072714Y-82512723D02*
X137025095Y-82607961D01*
X137025095Y-82607961D02*
X136929857Y-82703200D01*
X136929857Y-82703200D02*
X136787000Y-82750819D01*
X136787000Y-82750819D02*
X136548905Y-82750819D01*
X137453667Y-81750819D02*
X138072714Y-81750819D01*
X138072714Y-81750819D02*
X137739381Y-82131771D01*
X137739381Y-82131771D02*
X137882238Y-82131771D01*
X137882238Y-82131771D02*
X137977476Y-82179390D01*
X137977476Y-82179390D02*
X138025095Y-82227009D01*
X138025095Y-82227009D02*
X138072714Y-82322247D01*
X138072714Y-82322247D02*
X138072714Y-82560342D01*
X138072714Y-82560342D02*
X138025095Y-82655580D01*
X138025095Y-82655580D02*
X137977476Y-82703200D01*
X137977476Y-82703200D02*
X137882238Y-82750819D01*
X137882238Y-82750819D02*
X137596524Y-82750819D01*
X137596524Y-82750819D02*
X137501286Y-82703200D01*
X137501286Y-82703200D02*
X137453667Y-82655580D01*
X136656329Y-84274819D02*
X136656329Y-83274819D01*
X137227757Y-84274819D02*
X136799186Y-83703390D01*
X137227757Y-83274819D02*
X136656329Y-83846247D01*
X136675905Y-79067819D02*
X136675905Y-78067819D01*
X136675905Y-78067819D02*
X136914000Y-78067819D01*
X136914000Y-78067819D02*
X137056857Y-78115438D01*
X137056857Y-78115438D02*
X137152095Y-78210676D01*
X137152095Y-78210676D02*
X137199714Y-78305914D01*
X137199714Y-78305914D02*
X137247333Y-78496390D01*
X137247333Y-78496390D02*
X137247333Y-78639247D01*
X137247333Y-78639247D02*
X137199714Y-78829723D01*
X137199714Y-78829723D02*
X137152095Y-78924961D01*
X137152095Y-78924961D02*
X137056857Y-79020200D01*
X137056857Y-79020200D02*
X136914000Y-79067819D01*
X136914000Y-79067819D02*
X136675905Y-79067819D01*
X138199714Y-79067819D02*
X137628286Y-79067819D01*
X137914000Y-79067819D02*
X137914000Y-78067819D01*
X137914000Y-78067819D02*
X137818762Y-78210676D01*
X137818762Y-78210676D02*
X137723524Y-78305914D01*
X137723524Y-78305914D02*
X137628286Y-78353533D01*
X136656329Y-76654819D02*
X136656329Y-75654819D01*
X137227757Y-76654819D02*
X136799186Y-76083390D01*
X137227757Y-75654819D02*
X136656329Y-76226247D01*
X143033761Y-95419057D02*
X142938523Y-95371438D01*
X142938523Y-95371438D02*
X142843285Y-95276200D01*
X142843285Y-95276200D02*
X142700428Y-95133342D01*
X142700428Y-95133342D02*
X142605190Y-95085723D01*
X142605190Y-95085723D02*
X142509952Y-95085723D01*
X142557571Y-95323819D02*
X142462333Y-95276200D01*
X142462333Y-95276200D02*
X142367095Y-95180961D01*
X142367095Y-95180961D02*
X142319476Y-94990485D01*
X142319476Y-94990485D02*
X142319476Y-94657152D01*
X142319476Y-94657152D02*
X142367095Y-94466676D01*
X142367095Y-94466676D02*
X142462333Y-94371438D01*
X142462333Y-94371438D02*
X142557571Y-94323819D01*
X142557571Y-94323819D02*
X142748047Y-94323819D01*
X142748047Y-94323819D02*
X142843285Y-94371438D01*
X142843285Y-94371438D02*
X142938523Y-94466676D01*
X142938523Y-94466676D02*
X142986142Y-94657152D01*
X142986142Y-94657152D02*
X142986142Y-94990485D01*
X142986142Y-94990485D02*
X142938523Y-95180961D01*
X142938523Y-95180961D02*
X142843285Y-95276200D01*
X142843285Y-95276200D02*
X142748047Y-95323819D01*
X142748047Y-95323819D02*
X142557571Y-95323819D01*
X143938523Y-95323819D02*
X143367095Y-95323819D01*
X143652809Y-95323819D02*
X143652809Y-94323819D01*
X143652809Y-94323819D02*
X143557571Y-94466676D01*
X143557571Y-94466676D02*
X143462333Y-94561914D01*
X143462333Y-94561914D02*
X143367095Y-94609533D01*
X130349666Y-71082819D02*
X130349666Y-71797104D01*
X130349666Y-71797104D02*
X130302047Y-71939961D01*
X130302047Y-71939961D02*
X130206809Y-72035200D01*
X130206809Y-72035200D02*
X130063952Y-72082819D01*
X130063952Y-72082819D02*
X129968714Y-72082819D01*
X131349666Y-72082819D02*
X130778238Y-72082819D01*
X131063952Y-72082819D02*
X131063952Y-71082819D01*
X131063952Y-71082819D02*
X130968714Y-71225676D01*
X130968714Y-71225676D02*
X130873476Y-71320914D01*
X130873476Y-71320914D02*
X130778238Y-71368533D01*
D12*
%TO.C,R3*%
X133675000Y-88265000D02*
X133745000Y-88265000D01*
X133675000Y-88265000D02*
G75*
G03*
X133675000Y-88265000I-1370000J0D01*
G01*
%TO.C,D4*%
X145012666Y-88708608D02*
G75*
G03*
X148244999Y-88865515I1672334J1078608D01*
G01*
X147725960Y-86550001D02*
G75*
G03*
X145643871Y-86550164I-1040960J-1079999D01*
G01*
X148244999Y-86394485D02*
G75*
G03*
X145012666Y-86551392I-1559999J-1235515D01*
G01*
X145643871Y-88709836D02*
G75*
G03*
X147725960Y-88709999I1041129J1079836D01*
G01*
X148245000Y-86550000D02*
X148245000Y-86394000D01*
X148245000Y-88866000D02*
X148245000Y-88710000D01*
%TO.C,D2*%
X133368450Y-81177365D02*
G75*
G03*
X133308848Y-78910001I1251550J1167365D01*
G01*
%TO.C,C1*%
X146056000Y-80295000D02*
X147314000Y-80295000D01*
X146056000Y-78455000D02*
X147314000Y-78455000D01*
%TO.C,R2*%
X146785000Y-83185000D02*
X146855000Y-83185000D01*
X146785000Y-83185000D02*
G75*
G03*
X146785000Y-83185000I-1370000J0D01*
G01*
%TO.C,R1*%
X134945000Y-94615000D02*
X135015000Y-94615000D01*
X134945000Y-94615000D02*
G75*
G03*
X134945000Y-94615000I-1370000J0D01*
G01*
%TO.C,D3*%
X133529784Y-82652635D02*
G75*
G03*
X133589386Y-84919999I-1251550J-1167365D01*
G01*
%TO.C,D1*%
X133529784Y-75032635D02*
G75*
G03*
X133589386Y-77299999I-1251550J-1167365D01*
G01*
%TO.C,Q1*%
X148789000Y-95780000D02*
X148789000Y-92180000D01*
X144339001Y-93980000D02*
G75*
G03*
X145840193Y-96336399I2599999J0D01*
G01*
X148061795Y-96304183D02*
G75*
G03*
X148788999Y-95779999I-1122795J2324183D01*
G01*
X145840193Y-91623600D02*
G75*
G03*
X144339000Y-93980000I1098807J-2356400D01*
G01*
X148788999Y-92180001D02*
G75*
G03*
X148061795Y-91655817I-1849999J-1799999D01*
G01*
%TO.C,J1*%
X132274000Y-72958000D02*
X132274000Y-71628000D01*
X133604000Y-72958000D02*
X132274000Y-72958000D01*
X134874000Y-72958000D02*
X147634000Y-72958000D01*
X134874000Y-72958000D02*
X134874000Y-70298000D01*
X147634000Y-72958000D02*
X147634000Y-70298000D01*
X134874000Y-70298000D02*
X147634000Y-70298000D01*
%TD*%
M02*
