%TF.GenerationSoftware,KiCad,Pcbnew,7.0.6-7.0.6~ubuntu22.04.1*%
%TF.CreationDate,2023-08-18T10:05:56-04:00*%
%TF.ProjectId,laserSim,6c617365-7253-4696-9d2e-6b696361645f,rev?*%
%TF.SameCoordinates,Original*%
%TF.FileFunction,Copper,L1,Top*%
%TF.FilePolarity,Positive*%
%FSLAX46Y46*%
G04 Gerber Fmt 4.6, Leading zero omitted, Abs format (unit mm)*
G04 Created by KiCad (PCBNEW 7.0.6-7.0.6~ubuntu22.04.1) date 2023-08-18 10:05:56*
%MOMM*%
%LPD*%
G01*
G04 APERTURE LIST*
%TA.AperFunction,ComponentPad*%
%ADD10C,1.600000*%
%TD*%
%TA.AperFunction,ComponentPad*%
%ADD11O,1.600000X1.600000*%
%TD*%
%TA.AperFunction,ComponentPad*%
%ADD12C,1.800000*%
%TD*%
%TA.AperFunction,ComponentPad*%
%ADD13R,1.800000X1.800000*%
%TD*%
%TA.AperFunction,ComponentPad*%
%ADD14R,2.200000X2.200000*%
%TD*%
%TA.AperFunction,ComponentPad*%
%ADD15O,2.200000X2.200000*%
%TD*%
%TA.AperFunction,ComponentPad*%
%ADD16R,1.500000X1.500000*%
%TD*%
%TA.AperFunction,ComponentPad*%
%ADD17C,1.500000*%
%TD*%
%TA.AperFunction,ComponentPad*%
%ADD18R,1.700000X1.700000*%
%TD*%
%TA.AperFunction,ComponentPad*%
%ADD19O,1.700000X1.700000*%
%TD*%
%TA.AperFunction,ComponentPad*%
%ADD20C,4.500000*%
%TD*%
%TA.AperFunction,ComponentPad*%
%ADD21O,1.250000X1.250000*%
%TD*%
%TA.AperFunction,Conductor*%
%ADD22C,1.270000*%
%TD*%
%TA.AperFunction,Conductor*%
%ADD23C,0.304800*%
%TD*%
G04 APERTURE END LIST*
D10*
%TO.P,R3,1*%
%TO.N,/LDA*%
X132305000Y-88265000D03*
D11*
%TO.P,R3,2*%
%TO.N,Net-(D4-A)*%
X134845000Y-88265000D03*
%TD*%
D12*
%TO.P,D4,2,A*%
%TO.N,Net-(D4-A)*%
X145415000Y-87630000D03*
D13*
%TO.P,D4,1,K*%
%TO.N,/RL*%
X147955000Y-87630000D03*
%TD*%
D14*
%TO.P,D2,1,K*%
%TO.N,/R1A*%
X132080000Y-80010000D03*
D15*
%TO.P,D2,2,A*%
%TO.N,Net-(D2-A)*%
X134620000Y-80010000D03*
%TD*%
D10*
%TO.P,C1,2*%
%TO.N,/LDC*%
X147935000Y-79375000D03*
%TO.P,C1,1*%
%TO.N,/RL*%
X145435000Y-79375000D03*
%TD*%
%TO.P,R2,1*%
%TO.N,/RL*%
X145415000Y-83185000D03*
D11*
%TO.P,R2,2*%
%TO.N,/LDC*%
X147955000Y-83185000D03*
%TD*%
D10*
%TO.P,R1,1*%
%TO.N,/R1A*%
X133575000Y-94615000D03*
D11*
%TO.P,R1,2*%
%TO.N,/QE*%
X136115000Y-94615000D03*
%TD*%
D14*
%TO.P,D3,1,K*%
%TO.N,Net-(D2-A)*%
X134818234Y-83820000D03*
D15*
%TO.P,D3,2,A*%
%TO.N,/LDA*%
X132278234Y-83820000D03*
%TD*%
D14*
%TO.P,D1,1,K*%
%TO.N,/RL*%
X134818234Y-76200000D03*
D15*
%TO.P,D1,2,A*%
%TO.N,/R1A*%
X132278234Y-76200000D03*
%TD*%
D16*
%TO.P,Q1,1,E*%
%TO.N,/QE*%
X146939000Y-96520000D03*
D17*
%TO.P,Q1,2,B*%
%TO.N,/LDC*%
X146939000Y-93980000D03*
%TO.P,Q1,3,C*%
%TO.N,/PDC*%
X146939000Y-91440000D03*
%TD*%
D18*
%TO.P,J1,1,Pin_1*%
%TO.N,/R1A*%
X133604000Y-71628000D03*
D19*
%TO.P,J1,2,Pin_2*%
%TO.N,/LDA*%
X136144000Y-71628000D03*
%TO.P,J1,3,Pin_3*%
%TO.N,/PDC*%
X138684000Y-71628000D03*
%TO.P,J1,4,Pin_4*%
%TO.N,/RL*%
X141224000Y-71628000D03*
%TO.P,J1,5,Pin_5*%
%TO.N,/QE*%
X143764000Y-71628000D03*
%TO.P,J1,6,Pin_6*%
%TO.N,/LDC*%
X146304000Y-71628000D03*
%TD*%
D20*
%TO.P,LD1,4*%
%TO.N,N/C*%
X140398968Y-79700800D03*
X140398968Y-98724800D03*
D21*
%TO.P,LD1,3*%
%TO.N,/LDA*%
X141398968Y-89195800D03*
%TO.P,LD1,2*%
%TO.N,/LDC*%
X140398968Y-88095800D03*
%TO.P,LD1,1*%
%TO.N,/PDC*%
X139398968Y-89195800D03*
%TD*%
D22*
%TO.N,/LDC*%
X146939000Y-85725000D02*
X143510000Y-85725000D01*
X143510000Y-85725000D02*
X141351000Y-85725000D01*
X146939000Y-93980000D02*
X144653000Y-93980000D01*
X144653000Y-93980000D02*
X143383000Y-92710000D01*
X143383000Y-92710000D02*
X143383000Y-85852000D01*
X143383000Y-85852000D02*
X143510000Y-85725000D01*
%TO.N,/QE*%
X136115000Y-94615000D02*
X142113000Y-94615000D01*
X142113000Y-94615000D02*
X144018000Y-96520000D01*
X144018000Y-96520000D02*
X146939000Y-96520000D01*
%TO.N,/RL*%
X141351000Y-76200000D02*
X142260000Y-76200000D01*
D23*
X141224000Y-76073000D02*
X141351000Y-76200000D01*
D22*
X145435000Y-79375000D02*
X145435000Y-83165000D01*
X142260000Y-76200000D02*
X145435000Y-79375000D01*
X145435000Y-83165000D02*
X145415000Y-83185000D01*
X134818234Y-76200000D02*
X141351000Y-76200000D01*
D23*
X141224000Y-71628000D02*
X141224000Y-76073000D01*
D22*
%TO.N,/LDC*%
X147935000Y-79375000D02*
X147935000Y-83165000D01*
X141351000Y-85725000D02*
X140398968Y-86677032D01*
X140398968Y-86677032D02*
X140398968Y-88095800D01*
X147955000Y-83185000D02*
X147955000Y-84709000D01*
X147955000Y-84709000D02*
X146939000Y-85725000D01*
X147935000Y-83165000D02*
X147955000Y-83185000D01*
%TO.N,/R1A*%
X133575000Y-94615000D02*
X130175000Y-91215000D01*
X130175000Y-81280000D02*
X131445000Y-80010000D01*
X131445000Y-80010000D02*
X132080000Y-80010000D01*
D23*
X133604000Y-71628000D02*
X132278234Y-72953766D01*
D22*
X132080000Y-80010000D02*
X132080000Y-76398234D01*
D23*
X132278234Y-72953766D02*
X132278234Y-76200000D01*
D22*
X130175000Y-91215000D02*
X130175000Y-81280000D01*
X132080000Y-76398234D02*
X132278234Y-76200000D01*
%TO.N,Net-(D2-A)*%
X134818234Y-83820000D02*
X134818234Y-80208234D01*
X134818234Y-80208234D02*
X134620000Y-80010000D01*
%TO.N,/LDA*%
X140716000Y-90932000D02*
X133731000Y-90932000D01*
X133731000Y-90932000D02*
X132278234Y-89479234D01*
X141398968Y-89195800D02*
X141398968Y-90249032D01*
X141398968Y-90249032D02*
X140716000Y-90932000D01*
X132278234Y-89479234D02*
X132278234Y-83820000D01*
%TD*%
M02*
