M48
; DRILL file {KiCad 7.0.6-7.0.6~ubuntu22.04.1} date Fri 18 Aug 2023 10:06:02 AM EDT
; FORMAT={-:-/ absolute / inch / decimal}
; #@! TF.CreationDate,2023-08-18T10:06:02-04:00
; #@! TF.GenerationSoftware,Kicad,Pcbnew,7.0.6-7.0.6~ubuntu22.04.1
; #@! TF.FileFunction,Plated,1,2,PTH
FMAT,2
INCH
; #@! TA.AperFunction,Plated,PTH,ComponentDrill
T1C0.0315
; #@! TA.AperFunction,Plated,PTH,ComponentDrill
T2C0.0354
; #@! TA.AperFunction,Plated,PTH,ComponentDrill
T3C0.0394
; #@! TA.AperFunction,Plated,PTH,ComponentDrill
T4C0.0433
; #@! TA.AperFunction,Plated,PTH,ComponentDrill
T5C0.0929
%
G90
G05
T1
X5.2089Y-3.475
X5.2589Y-3.725
X5.3089Y-3.475
X5.3589Y-3.725
X5.725Y-3.275
X5.7258Y-3.125
X5.785Y-3.6
X5.785Y-3.7
X5.785Y-3.8
X5.8242Y-3.125
X5.825Y-3.275
T2
X5.725Y-3.45
X5.825Y-3.45
T3
X5.26Y-2.82
X5.36Y-2.82
X5.46Y-2.82
X5.56Y-2.82
X5.66Y-2.82
X5.76Y-2.82
T4
X5.2Y-3.15
X5.2078Y-3.0
X5.2078Y-3.3
X5.3Y-3.15
X5.3078Y-3.0
X5.3078Y-3.3
T5
X5.5275Y-3.1378
X5.5275Y-3.8868
T1
G00X5.4881Y-3.5116
M15
G01X5.4881Y-3.5116
M16
G05
G00X5.5275Y-3.4683
M15
G01X5.5275Y-3.4683
M16
G05
G00X5.5669Y-3.5116
M15
G01X5.5669Y-3.5116
M16
G05
T0
M30
